<svg width="42" height="61" viewBox="0 0 42 61" fill="none" xmlns="http://www.w3.org/2000/svg">
<path d="M31.92 33.6C31.92 47.5176 27.7707 52.08 20.58 52.08C13.3892 52.08 9.23999 47.5176 9.23999 33.6C9.23999 19.6824 15.12 1.67999 20.58 1.67999C26.04 1.67999 31.92 19.6824 31.92 33.6Z" fill="#FFD12F"/>
<path fill-rule="evenodd" clip-rule="evenodd" d="M30.3408 48.9963C28.0153 52.4558 24.5805 53.76 20.58 53.76C16.5795 53.76 13.1447 52.4558 10.8192 48.9963C8.59789 45.6918 7.56 40.655 7.56 33.6C7.56 26.4396 9.06619 18.2747 11.2743 11.8731C12.3767 8.67717 13.6834 5.83391 15.1234 3.75403C15.8434 2.71416 16.6373 1.80552 17.5084 1.14328C18.3817 0.479425 19.4197 0 20.58 0C21.7403 0 22.7783 0.479425 23.6516 1.14328C24.5227 1.80552 25.3166 2.71416 26.0366 3.75403C27.4766 5.83391 28.7833 8.67717 29.8857 11.8731C32.0938 18.2747 33.6 26.4396 33.6 33.6C33.6 40.655 32.5621 45.6918 30.3408 48.9963ZM20.58 52.08C27.7708 52.08 31.92 47.5176 31.92 33.6C31.92 19.6824 26.04 1.68 20.58 1.68C15.12 1.68 9.24 19.6824 9.24 33.6C9.24 47.5176 13.3893 52.08 20.58 52.08Z" fill="#EC9616"/>
<path d="M16.1681 25.2469C18.2435 25.284 19.9662 23.0677 20.0157 20.2966C20.0652 17.5255 21.0718 4.33117 18.9964 4.29407C16.9209 4.25697 12.5494 17.3911 12.4999 20.1622C12.4503 22.9333 14.0927 25.2098 16.1681 25.2469Z" fill="#FFE071"/>
<path fill-rule="evenodd" clip-rule="evenodd" d="M15.1342 50.821C19.7006 49.7075 22.9423 45.0155 24.7366 34.5854C26.9165 21.9135 24.7414 4.95465 20.1544 1.71596C20.2965 1.69211 20.4385 1.67999 20.5801 1.67999C26.0401 1.67999 31.9201 19.6824 31.9201 33.6C31.9201 47.5176 27.7709 52.08 20.5801 52.08C18.5018 52.08 16.6776 51.6989 15.1342 50.821Z" fill="#F1B826"/>
<path d="M15.9654 17.7541C15.9654 18.5374 15.3304 19.1724 14.5471 19.1724C13.7638 19.1724 13.1288 18.5374 13.1288 17.7541C13.1288 16.9708 13.7638 16.3358 14.5471 16.3358C15.3304 16.3358 15.9654 16.9708 15.9654 17.7541Z" fill="#FFF730"/>
<path d="M20.2201 17.7541C20.2201 18.5374 19.5851 19.1724 18.8018 19.1724C18.0186 19.1724 17.3836 18.5374 17.3836 17.7541C17.3836 16.9708 18.0186 16.3358 18.8018 16.3358C19.5851 16.3358 20.2201 16.9708 20.2201 17.7541Z" fill="#FFF730"/>
<path d="M24.4075 17.7541C24.4075 18.5374 23.7725 19.1724 22.9892 19.1724C22.2059 19.1724 21.5709 18.5374 21.5709 17.7541C21.5709 16.9708 22.2059 16.3358 22.9892 16.3358C23.7725 16.3358 24.4075 16.9708 24.4075 17.7541Z" fill="#FFF730"/>
<path d="M28.5947 17.7541C28.5947 18.5374 27.9597 19.1724 27.1764 19.1724C26.3931 19.1724 25.7581 18.5374 25.7581 17.7541C25.7581 16.9708 26.3931 16.3358 27.1764 16.3358C27.9597 16.3358 28.5947 16.9708 28.5947 17.7541Z" fill="#FFF730"/>
<path d="M27.244 13.4993C27.244 14.2826 26.609 14.9176 25.8257 14.9176C25.0424 14.9176 24.4074 14.2826 24.4074 13.4993C24.4074 12.7161 25.0424 12.0811 25.8257 12.0811C26.609 12.0811 27.244 12.7161 27.244 13.4993Z" fill="#FFF730"/>
<path d="M22.28 13.4993C22.28 14.2826 21.645 14.9176 20.8617 14.9176C20.0784 14.9176 19.4434 14.2826 19.4434 13.4993C19.4434 12.7161 20.0784 12.0811 20.8617 12.0811C21.645 12.0811 22.28 12.7161 22.28 13.4993Z" fill="#FFF730"/>
<path d="M17.316 13.4993C17.316 14.2826 16.681 14.9176 15.8977 14.9176C15.1144 14.9176 14.4795 14.2826 14.4795 13.4993C14.4795 12.7161 15.1144 12.0811 15.8977 12.0811C16.681 12.0811 17.316 12.7161 17.316 13.4993Z" fill="#FFF730"/>
<path d="M19.4435 9.95351C19.4435 10.7368 18.8085 11.3718 18.0252 11.3718C17.2419 11.3718 16.6069 10.7368 16.6069 9.95351C16.6069 9.17022 17.2419 8.53523 18.0252 8.53523C18.8085 8.53523 19.4435 9.17022 19.4435 9.95351Z" fill="#FFF730"/>
<path d="M25.1165 9.95351C25.1165 10.7368 24.4815 11.3718 23.6982 11.3718C22.9149 11.3718 22.28 10.7368 22.28 9.95351C22.28 9.17022 22.9149 8.53523 23.6982 8.53523C24.4815 8.53523 25.1165 9.17022 25.1165 9.95351Z" fill="#FFF730"/>
<path d="M22.28 6.40788C22.28 7.19117 21.645 7.82616 20.8617 7.82616C20.0784 7.82616 19.4434 7.19117 19.4434 6.40788C19.4434 5.62458 20.0784 4.98959 20.8617 4.98959C21.645 4.98959 22.28 5.62458 22.28 6.40788Z" fill="#FFF730"/>
<path d="M18.0927 22.0766C18.0927 22.8599 17.4577 23.4949 16.6744 23.4949C15.8911 23.4949 15.2561 22.8599 15.2561 22.0766C15.2561 21.2933 15.8911 20.6583 16.6744 20.6583C17.4577 20.6583 18.0927 21.2933 18.0927 22.0766Z" fill="#FFF730"/>
<path d="M22.28 22.009C22.28 22.7923 21.645 23.4273 20.8617 23.4273C20.0784 23.4273 19.4434 22.7923 19.4434 22.009C19.4434 21.2257 20.0784 20.5907 20.8617 20.5907C21.645 20.5907 22.28 21.2257 22.28 22.009Z" fill="#FFF730"/>
<path d="M27.9532 22.009C27.9532 22.7923 27.3182 23.4273 26.5349 23.4273C25.7516 23.4273 25.1167 22.7923 25.1167 22.009C25.1167 21.2257 25.7516 20.5907 26.5349 20.5907C27.3182 20.5907 27.9532 21.2257 27.9532 22.009Z" fill="#FFF730"/>
<path d="M30.7223 26.2638C30.7223 27.0471 30.0873 27.6821 29.304 27.6821C28.5208 27.6821 27.8858 27.0471 27.8858 26.2638C27.8858 25.4805 28.5208 24.8456 29.304 24.8456C30.0873 24.8456 30.7223 25.4805 30.7223 26.2638Z" fill="#FFF730"/>
<path d="M25.1165 26.2638C25.1165 27.0471 24.4815 27.6821 23.6982 27.6821C22.9149 27.6821 22.28 27.0471 22.28 26.2638C22.28 25.4805 22.9149 24.8456 23.6982 24.8456C24.4815 24.8456 25.1165 25.4805 25.1165 26.2638Z" fill="#FFF730"/>
<path d="M18.7343 26.2638C18.7343 27.0471 18.0993 27.6821 17.316 27.6821C16.5327 27.6821 15.8977 27.0471 15.8977 26.2638C15.8977 25.4805 16.5327 24.8456 17.316 24.8456C18.0993 24.8456 18.7343 25.4805 18.7343 26.2638Z" fill="#FFF730"/>
<path d="M14.4795 24.1364C14.4795 24.9197 13.8445 25.5546 13.0612 25.5546C12.2779 25.5546 11.6429 24.9197 11.6429 24.1364C11.6429 23.3531 12.2779 22.7181 13.0612 22.7181C13.8445 22.7181 14.4795 23.3531 14.4795 24.1364Z" fill="#FFF730"/>
<path d="M15.1211 29.742C15.1211 30.5253 14.4861 31.1603 13.7029 31.1603C12.9196 31.1603 12.2846 30.5253 12.2846 29.742C12.2846 28.9587 12.9196 28.3237 13.7029 28.3237C14.4861 28.3237 15.1211 28.9587 15.1211 29.742Z" fill="#FFF730"/>
<path d="M19.9499 30.4512C19.9499 31.2345 19.3149 31.8695 18.5316 31.8695C17.7483 31.8695 17.1134 31.2345 17.1134 30.4512C17.1134 29.6679 17.7483 29.0329 18.5316 29.0329C19.3149 29.0329 19.9499 29.6679 19.9499 30.4512Z" fill="#FFF730"/>
<path d="M25.5557 30.5187C25.5557 31.302 24.9207 31.937 24.1375 31.937C23.3542 31.937 22.7192 31.302 22.7192 30.5187C22.7192 29.7354 23.3542 29.1004 24.1375 29.1004C24.9207 29.1004 25.5557 29.7354 25.5557 30.5187Z" fill="#FFF730"/>
<path d="M30.4521 32.0383C30.4521 32.8216 29.8171 33.4565 29.0338 33.4565C28.2505 33.4565 27.6156 32.8216 27.6156 32.0383C27.6156 31.255 28.2505 30.62 29.0338 30.62C29.8171 30.62 30.4521 31.255 30.4521 32.0383Z" fill="#FFF730"/>
<path d="M21.9086 35.9217C21.9086 36.705 21.2736 37.34 20.4903 37.34C19.707 37.34 19.072 36.705 19.072 35.9217C19.072 35.1384 19.707 34.5034 20.4903 34.5034C21.2736 34.5034 21.9086 35.1384 21.9086 35.9217Z" fill="#FFF730"/>
<path d="M22.6852 40.5818C22.6852 41.3651 22.0502 42.0001 21.2669 42.0001C20.4836 42.0001 19.8487 41.3651 19.8487 40.5818C19.8487 39.7985 20.4836 39.1635 21.2669 39.1635C22.0502 39.1635 22.6852 39.7985 22.6852 40.5818Z" fill="#FFF730"/>
<path d="M26.4 35.4151C26.4 36.1984 25.765 36.8334 24.9817 36.8334C24.1984 36.8334 23.5634 36.1984 23.5634 35.4151C23.5634 34.6318 24.1984 33.9968 24.9817 33.9968C25.765 33.9968 26.4 34.6318 26.4 35.4151Z" fill="#FFF730"/>
<path d="M17.9576 35.4827C17.9576 36.266 17.3227 36.901 16.5394 36.901C15.7561 36.901 15.1211 36.266 15.1211 35.4827C15.1211 34.6994 15.7561 34.0644 16.5394 34.0644C17.3227 34.0644 17.9576 34.6994 17.9576 35.4827Z" fill="#FFF730"/>
<path fill-rule="evenodd" clip-rule="evenodd" d="M19.2468 5.08109C20.0398 5.56283 20.2921 6.5962 19.8104 7.38917C19.4428 7.99419 19.2327 8.60954 19.16 9.24717C19.0549 10.169 18.2224 10.8312 17.3005 10.7261C16.3787 10.621 15.7166 9.78844 15.8217 8.86657C15.952 7.72286 16.3311 6.64491 16.9388 5.64464C17.4205 4.85166 18.4539 4.59935 19.2468 5.08109Z" fill="white"/>
<path d="M22.68 44.52C22.68 45.4479 21.9278 46.2 21 46.2C20.0722 46.2 19.32 45.4479 19.32 44.52C19.32 43.5922 20.0722 42.84 21 42.84C21.9278 42.84 22.68 43.5922 22.68 44.52Z" fill="#F3D157"/>
<path d="M33.9537 48.4921C31.1242 56.4807 23.579 58.6926 20.16 58.8C20.5137 55.3641 19.6699 47.0374 24.48 39.5642C29.2901 32.091 37.9621 32.1714 40.32 33.3525C37.8442 34.9631 37.4906 38.5064 33.9537 48.4921Z" fill="#76C611"/>
<path fill-rule="evenodd" clip-rule="evenodd" d="M18.9305 59.9449C18.6002 59.5902 18.4392 59.1101 18.4888 58.628C18.544 58.0917 18.5629 57.3627 18.5858 56.4817C18.6908 52.4292 18.8793 45.1617 23.0673 38.6549C25.742 34.4994 29.5079 32.4346 32.9119 31.5832C34.6073 31.1591 36.2265 31.0314 37.6049 31.0957C38.944 31.1581 40.1899 31.4083 41.0724 31.8504C41.6107 32.12 41.9635 32.6571 41.9973 33.2581C42.0312 33.8592 41.7407 34.4324 41.2361 34.7607C40.5019 35.2384 39.9458 36.0421 39.1156 38.3503C38.7685 39.3152 38.3973 40.4665 37.9399 41.8852C37.8597 42.1341 37.7768 42.3912 37.691 42.6569C37.1199 44.4242 36.4291 46.535 35.5373 49.0531C32.3926 57.9315 24.0321 60.3592 20.2127 60.4792C19.7283 60.4944 19.2608 60.2996 18.9305 59.9449ZM20.256 57.1148C20.2641 56.868 20.2715 56.6097 20.2792 56.3409C20.3975 52.2197 20.5871 45.6124 24.48 39.5642C28.3613 33.534 34.7571 32.422 38.3211 32.8379C39.174 32.9374 39.8647 33.1244 40.32 33.3525C39.8016 33.6897 39.3763 34.1117 38.9953 34.6597C38.0793 35.9773 37.4195 38.024 36.3394 41.3747C35.723 43.2869 34.9696 45.6237 33.9537 48.4922C31.5309 55.3324 25.6507 57.9374 21.8639 58.6123C21.2282 58.7257 20.6515 58.7846 20.16 58.8C20.2088 58.3262 20.2348 57.7595 20.256 57.1148Z" fill="#548F09"/>
<path fill-rule="evenodd" clip-rule="evenodd" d="M20.3838 53.6636C23.8746 53.0303 27.941 51.1542 30.7402 46.7278C32.3667 44.1558 33.6192 42.044 34.644 40.3161C37.1686 36.0596 38.3119 34.1319 40.2609 33.3916C38.5399 34.5487 37.8517 36.6836 36.3394 41.3747C35.723 43.2868 34.9697 45.6237 33.9537 48.4921C31.1242 56.4807 23.579 58.6926 20.16 58.8C20.2275 58.1448 20.2514 57.3118 20.2792 56.3409C20.3023 55.5358 20.3282 54.6358 20.3838 53.6636ZM40.2952 33.3687C40.3035 33.3633 40.3117 33.3578 40.32 33.3524C40.2831 33.3339 40.2446 33.3157 40.2047 33.2978C40.2361 33.3215 40.2663 33.3451 40.2952 33.3687Z" fill="#67AE0E"/>
<path d="M7.73815 30.8555C4.03531 28.3405 2.87224 24.9172 2.75356 23.52C1.80411 23.52 0.617305 26.8734 3.46564 40.2868C6.31398 53.7001 15.5711 58.2179 19.8436 58.8C24.8281 40.9854 12.3667 33.9992 7.73815 30.8555Z" fill="#8DEA17"/>
<path fill-rule="evenodd" clip-rule="evenodd" d="M2.75355 21.84C3.62627 21.84 4.35366 22.5082 4.42752 23.3778C4.50553 24.2962 5.41912 27.2495 8.68207 29.4657C8.93104 29.6348 9.20986 29.8191 9.51334 30.0198C11.9121 31.6058 15.8518 34.2105 18.7699 38.3597C22.1358 43.1455 24.0873 49.868 21.4614 59.2527C21.2354 60.0606 20.448 60.5779 19.6168 60.4646C14.6872 59.7929 4.82719 54.7864 1.82228 40.6357C0.387585 33.8795 -0.0579686 29.5403 0.00589081 26.8337C0.0374765 25.495 0.195061 24.437 0.494447 23.6537C0.742968 23.0035 1.39062 21.84 2.75355 21.84ZM2.68543 23.5258C2.28065 23.5948 1.85167 24.2905 1.72043 26.1184C1.54834 28.515 1.88815 32.8581 3.46564 40.2867C6.31397 53.7001 15.5711 58.2178 19.8436 58.8C24.545 41.9972 13.7259 34.8277 8.59797 31.4296C8.28918 31.225 8.00103 31.034 7.73814 30.8554C5.4513 29.3022 4.13317 27.4025 3.43151 25.8477C3.32148 25.6038 3.22661 25.3685 3.14555 25.1443C2.9065 24.4832 2.78744 23.919 2.75355 23.52C2.73096 23.52 2.70823 23.5219 2.68543 23.5258ZM3.68565 24.7365C3.68595 24.7377 3.68012 24.7504 3.6673 24.7707C3.67895 24.7455 3.68536 24.7353 3.68565 24.7365Z" fill="#548F09"/>
<path d="M7.62421 34.257C5.5313 32.8798 4.62001 32.34 4.20001 31.5C4.62001 35.28 4.2701 34.2346 5.88001 41.58C6.61643 44.94 10.3715 50.9212 12.7864 51.24C15.6038 41.4844 10.2403 35.9786 7.62421 34.257Z" fill="#A4FC34"/>
</svg>
