<svg width="49" height="54" viewBox="0 0 49 54" fill="none" xmlns="http://www.w3.org/2000/svg">
<path d="M26.3445 2.71954C26.2861 2.2398 25.8809 1.875 25.3977 1.875H23.3693C22.8789 1.875 22.4699 2.25114 22.4172 2.73864C22.2366 4.4098 21.7318 8.15249 20.625 10.7812C19.62 13.1681 16.7069 16.1949 13.1426 18.3125C6.09375 22.5 1.875 27.1511 1.875 33.75C1.875 43.5876 11.9486 51.5625 24.375 51.5625C36.8014 51.5625 46.875 43.5876 46.875 33.75C46.875 27.1015 41.7777 22.3159 35.4551 18.2434C31.875 15.9375 29.1223 13.2713 28.125 10.7812C27.1005 8.22331 26.5494 4.40055 26.3445 2.71954Z" fill="#E289B0"/>
<path fill-rule="evenodd" clip-rule="evenodd" d="M23.3693 0H25.3977C26.8454 0 28.0346 1.08872 28.2058 2.49269C28.4123 4.18749 28.9435 7.78179 29.8656 10.0841C30.6405 12.019 32.9816 14.42 36.4704 16.6671C42.817 20.7551 48.75 26.0313 48.75 33.75C48.75 45.0078 37.4049 53.4375 24.375 53.4375C11.3451 53.4375 0 45.0078 0 33.75C0 26.139 4.95304 20.9968 12.1849 16.7005C15.5553 14.6982 18.104 11.9367 18.8969 10.0536C19.886 7.70457 20.3722 4.21087 20.553 2.53725C20.706 1.12175 21.8974 0 23.3693 0ZM25.3977 1.875C25.8809 1.875 26.2861 2.2398 26.3445 2.71954C26.5494 4.40055 27.1005 8.22331 28.125 10.7812C29.1223 13.2713 31.875 15.9375 35.4551 18.2434C41.7777 22.3159 46.875 27.1015 46.875 33.75C46.875 43.5876 36.8014 51.5625 24.375 51.5625C11.9486 51.5625 1.875 43.5876 1.875 33.75C1.875 27.1511 6.09375 22.5 13.1426 18.3125C16.7069 16.1949 19.62 13.1681 20.625 10.7812C21.7318 8.15249 22.2366 4.4098 22.4172 2.73864C22.4699 2.25114 22.8789 1.875 23.3693 1.875H25.3977Z" fill="#9D225D"/>
<path d="M17.9793 22.1412C20.1511 24.3625 19.0174 28.9929 15.4472 32.4834C11.877 35.974 7.22223 37.0029 5.05045 34.7815C2.87868 32.5602 4.01232 27.9298 7.58251 24.4393C11.1527 20.9487 15.8075 19.9198 17.9793 22.1412Z" fill="#FFA7CF"/>
<path fill-rule="evenodd" clip-rule="evenodd" d="M23.1912 1.89182C22.7829 1.96992 22.4633 2.31154 22.4171 2.73863C22.3556 3.30796 22.2565 4.11773 22.1087 5.04198C22.557 3.89958 22.9229 2.78164 23.1912 1.89182ZM7.8602 45.8477C10.672 47.5431 13.9629 48.7765 17.5647 49.3638C29.8292 51.3633 41.0548 45.1133 42.6378 35.404C43.7077 28.8421 39.4468 23.2987 33.8619 18.2618C31.3388 15.9864 29.3725 13.5693 28.3842 11.3554C29.5481 13.677 32.1488 16.1139 35.455 18.2434C41.7776 22.3159 46.8749 27.1015 46.8749 33.75C46.8749 43.5876 36.8013 51.5625 24.3749 51.5625C17.848 51.5625 11.9701 49.3623 7.8602 45.8477Z" fill="#C7638F"/>
<path d="M26.25 32.8125C26.25 42.1323 25.8303 49.6875 25.3125 49.6875C24.7947 49.6875 24.375 42.1323 24.375 32.8125C24.375 23.4927 24.7947 15.9375 25.3125 15.9375C25.8303 15.9375 26.25 23.4927 26.25 32.8125Z" fill="#C54C82"/>
<path d="M41.25 32.3438C41.25 40.3691 33.3556 46.875 32.8395 46.875C32.3234 46.875 39.381 40.3691 39.381 32.3438C39.381 24.3184 32.3234 17.8125 32.8395 17.8125C33.3556 17.8125 41.25 24.3184 41.25 32.3438Z" fill="#C54C82"/>
<path d="M7.5 32.3438C7.5 40.3691 15.3944 46.875 15.9105 46.875C16.4266 46.875 9.369 40.3691 9.369 32.3438C9.369 24.3184 16.4266 17.8125 15.9105 17.8125C15.3944 17.8125 7.5 24.3184 7.5 32.3438Z" fill="#C54C82"/>
<path d="M33.75 33.2812C33.75 42.3422 29.3038 49.6875 29.0745 49.6875C28.8451 49.6875 31.0443 42.3422 31.0443 33.2812C31.0443 24.2203 28.8451 16.875 29.0745 16.875C29.3038 16.875 33.75 24.2203 33.75 33.2812Z" fill="#C54C82"/>
<path d="M15.9375 33.2812C15.9375 42.3422 20.3837 49.6875 20.613 49.6875C20.8424 49.6875 18.6432 42.3422 18.6432 33.2812C18.6432 24.2203 20.8424 16.875 20.613 16.875C20.3837 16.875 15.9375 24.2203 15.9375 33.2812Z" fill="#C54C82"/>
<path d="M41.0434 35.6329C40.6708 36.3522 39.7856 36.6332 39.0663 36.2606C38.3471 35.8879 38.0661 35.0027 38.4387 34.2835C38.8114 33.5642 39.6965 33.2832 40.4158 33.6558C41.1351 34.0285 41.4161 34.9137 41.0434 35.6329Z" fill="#A3446E"/>
<path d="M44.0989 40.0465C43.7263 40.7658 42.8411 41.0468 42.1218 40.6742C41.4025 40.3015 41.1215 39.4164 41.4942 38.6971C41.8668 37.9778 42.752 37.6968 43.4713 38.0695C44.1905 38.4421 44.4715 39.3273 44.0989 40.0465Z" fill="#A3446E"/>
<path d="M45.0494 34.8727C44.7699 35.4121 44.106 35.6229 43.5665 35.3434C43.0271 35.0639 42.8163 34.4 43.0958 33.8606C43.3753 33.3211 44.0392 33.1104 44.5786 33.3899C45.1181 33.6693 45.3288 34.3332 45.0494 34.8727Z" fill="#A3446E"/>
<path d="M41.0389 44.3789C40.6662 45.0982 39.7811 45.3792 39.0618 45.0065C38.3425 44.6339 38.0615 43.7487 38.4342 43.0295C38.8068 42.3102 39.692 42.0292 40.4113 42.4018C41.1305 42.7745 41.4115 43.6596 41.0389 44.3789Z" fill="#A3446E"/>
<path d="M38.9028 39.8925C38.5302 40.6118 37.645 40.8928 36.9257 40.5201C36.2065 40.1475 35.9255 39.2623 36.2981 38.5431C36.6708 37.8238 37.5559 37.5428 38.2752 37.9154C38.9945 38.2881 39.2755 39.1732 38.9028 39.8925Z" fill="#A3446E"/>
<path d="M35.9806 47.3903C35.6079 48.1096 34.7227 48.3906 34.0035 48.0179C33.2842 47.6453 33.0032 46.7601 33.3758 46.0408C33.7485 45.3215 34.6337 45.0405 35.3529 45.4132C36.0722 45.7858 36.3532 46.671 35.9806 47.3903Z" fill="#A3446E"/>
<path d="M34.6937 42.9169C34.321 43.6362 33.4359 43.9172 32.7166 43.5445C31.9973 43.1719 31.7163 42.2867 32.089 41.5674C32.4616 40.8482 33.3468 40.5672 34.066 40.9398C34.7853 41.3124 35.0663 42.1976 34.6937 42.9169Z" fill="#A3446E"/>
<path d="M30.4425 49.0596C30.163 49.5991 29.4992 49.8098 28.9597 49.5303C28.4202 49.2509 28.2095 48.587 28.489 48.0475C28.7685 47.5081 29.4323 47.2973 29.9718 47.5768C30.5113 47.8563 30.722 48.5202 30.4425 49.0596Z" fill="#A3446E"/>
<path fill-rule="evenodd" clip-rule="evenodd" d="M10.9383 26.3217C11.6882 27.0359 11.7172 28.2227 11.003 28.9726C10.4581 29.5447 10.0824 30.1656 9.85129 30.8435C9.51709 31.8237 8.45163 32.3473 7.4715 32.0131C6.49138 31.6789 5.96775 30.6134 6.30194 29.6333C6.71655 28.4173 7.38663 27.3323 8.28749 26.3864C9.00165 25.6365 10.1885 25.6076 10.9383 26.3217Z" fill="white"/>
</svg>
