<svg width="71" height="64" viewBox="0 0 71 64" fill="none" xmlns="http://www.w3.org/2000/svg">
<path d="M6.59736 18.7528C4.62877 32.044 12.7246 39.7548 24.0046 39.4833C35.2845 39.2118 47.5776 41.4615 50.7533 29.368C53.4684 19.0284 48.5075 14.749 34.8761 9.50171C21.2447 4.25442 8.56594 5.46171 6.59736 18.7528Z" fill="#CA8E34"/>
<path fill-rule="evenodd" clip-rule="evenodd" d="M8.9368 35.4558C12.5609 39.4974 17.9759 41.5039 24.0497 41.3577C25.7252 41.3174 27.3649 41.333 29.0289 41.3488C30.1704 41.3597 31.3233 41.3707 32.5071 41.3638C35.3239 41.3474 38.1648 41.2255 40.7883 40.6969C43.4229 40.1662 45.936 39.207 48.0276 37.4469C50.1393 35.6698 51.6888 33.1876 52.5668 29.8442C54.023 24.299 53.5022 19.9364 50.3641 16.3002C47.4175 12.8859 42.346 10.368 35.5497 7.75187C28.5714 5.06565 21.561 3.91294 15.8993 5.35865C13.0321 6.09077 10.488 7.49766 8.52419 9.72097C6.56273 11.9416 5.27755 14.8663 4.74259 18.4781C3.69469 25.5531 5.30122 31.4014 8.9368 35.4558ZM24.0046 39.4832C12.7246 39.7548 4.62876 32.044 6.59736 18.7528C8.56595 5.4617 21.2447 4.25442 34.8761 9.5017C48.5075 14.749 53.4684 19.0284 50.7533 29.368C48.0532 39.6502 38.7625 39.5639 29.1072 39.4743C27.4063 39.4585 25.6941 39.4426 24.0046 39.4832Z" fill="#855D22"/>
<path d="M24.9722 10.1492C26.1742 12.5362 23.3963 15.0794 19.8159 16.8825C16.2355 18.6856 12.0823 19.2695 10.8802 16.8825C9.67816 14.4956 11.6062 11.0989 15.1866 9.29579C18.767 7.49268 23.7701 7.76229 24.9722 10.1492Z" fill="#DB9F45"/>
<path fill-rule="evenodd" clip-rule="evenodd" d="M6.50773 19.4101C7.72082 22.5851 9.85409 25.3997 13.2783 26.5433C22.2303 29.5332 40.5723 25.1044 37.8421 13.9552C37.474 12.4522 36.8619 11.1312 36.0669 9.9664C48.7953 15.0082 53.388 19.3352 50.7534 29.3679C48.0533 39.6501 38.7626 39.5639 29.1073 39.4742C27.4064 39.4584 25.6942 39.4425 24.0047 39.4832C12.912 39.7502 4.89858 32.2977 6.50773 19.4101Z" fill="#AA7A32"/>
<path d="M65.7453 34.3641C63.4528 22.537 51.2282 15.0079 37.5175 25.0892C23.8069 35.1705 12.1125 31.1381 13.1675 43.2518C14.0951 53.9017 29.0495 56.1399 41.5502 56.1399C54.0508 56.1399 67.5638 44.8984 65.7453 34.3641Z" fill="#DD9B38"/>
<path fill-rule="evenodd" clip-rule="evenodd" d="M67.5897 34.0262L67.5861 34.0073C66.339 27.5737 62.3556 22.1568 56.6325 19.7795C50.8482 17.3767 43.6763 18.2334 36.4068 23.5786C31.2519 27.369 26.492 29.0369 22.3925 30.4733C21.2487 30.8741 20.1563 31.2569 19.1211 31.6627C16.8191 32.5652 14.6152 33.6609 13.1233 35.5646C11.5717 37.5443 11.0105 40.0948 11.2996 43.4145C11.8576 49.8213 16.6895 53.4663 22.4011 55.4598C28.1187 57.4555 35.2347 58.0149 41.5502 58.0149C48.3235 58.0149 55.2526 54.991 60.2526 50.613C65.2135 46.2692 68.6593 40.2218 67.593 34.0451L67.5897 34.0262ZM65.7453 34.3641C67.5638 44.8984 54.0508 56.1399 41.5502 56.1399C29.0495 56.1399 14.0951 53.9017 13.1675 43.2519C12.5284 35.9134 16.5682 34.5004 22.9006 32.2855C27.0213 30.8442 32.1127 29.0633 37.5175 25.0892C51.2282 15.0079 63.4528 22.537 65.7453 34.3641Z" fill="#976923"/>
<path fill-rule="evenodd" clip-rule="evenodd" d="M53.8498 20.829C58.1561 22.9679 61.2261 27.2944 62.2375 32.5117C63.9447 42.4015 51.2585 52.9552 39.5227 52.9552C28.3853 52.9552 15.1732 51.0627 13.1105 42.3242C13.1208 42.6225 13.1398 42.9316 13.1677 43.2519C14.0952 53.9018 29.0497 56.14 41.5503 56.1399C54.051 56.1399 67.564 44.8985 65.7455 34.3641C64.4487 27.674 59.9739 22.3591 53.8498 20.829Z" fill="#CA8E34"/>
<path d="M40.0447 32.8473C39.381 33.4415 38.3613 33.3852 37.767 32.7215C37.1728 32.0579 37.2291 31.0381 37.8928 30.4439C38.5565 29.8496 39.5762 29.9059 40.1705 30.5696C40.7647 31.2333 40.7084 32.253 40.0447 32.8473Z" fill="#996518"/>
<path d="M24.1072 47.8473C23.4435 48.4415 22.4238 48.3852 21.8295 47.7215C21.2353 47.0579 21.2916 46.0381 21.9553 45.4439C22.619 44.8496 23.6387 44.9059 24.233 45.5696C24.8272 46.2333 24.7709 47.253 24.1072 47.8473Z" fill="#996518"/>
<path d="M32.5447 42.2223C31.881 42.8165 30.8613 42.7602 30.267 42.0965C29.6728 41.4329 29.7291 40.4131 30.3928 39.8189C31.0565 39.2246 32.0762 39.2809 32.6705 39.9446C33.2647 40.6083 33.2084 41.628 32.5447 42.2223Z" fill="#996518"/>
<path d="M40.0447 47.8473C39.381 48.4415 38.3613 48.3852 37.767 47.7215C37.1728 47.0579 37.2291 46.0381 37.8928 45.4439C38.5565 44.8496 39.5762 44.9059 40.1705 45.5696C40.7647 46.2333 40.7084 47.253 40.0447 47.8473Z" fill="#996518"/>
<path d="M52.2322 35.6598C51.5685 36.254 50.5488 36.1977 49.9545 35.534C49.3603 34.8704 49.4166 33.8506 50.0803 33.2564C50.744 32.6621 51.7637 32.7184 52.358 33.3821C52.9522 34.0458 52.8959 35.0655 52.2322 35.6598Z" fill="#996518"/>
<path d="M52.2322 26.2848C51.5685 26.879 50.5488 26.8227 49.9545 26.159C49.3603 25.4954 49.4166 24.4756 50.0803 23.8814C50.744 23.2871 51.7637 23.3434 52.358 24.0071C52.9522 24.6708 52.8959 25.6905 52.2322 26.2848Z" fill="#996518"/>
<path d="M63.4822 36.5973C62.8185 37.1915 61.7988 37.1352 61.2045 36.4715C60.6103 35.8079 60.6666 34.7881 61.3303 34.1939C61.994 33.5996 63.0137 33.6559 63.608 34.3196C64.2022 34.9833 64.1459 36.003 63.4822 36.5973Z" fill="#996518"/>
<path d="M45.6697 40.3473C45.006 40.9415 43.9863 40.8852 43.392 40.2215C42.7978 39.5579 42.8541 38.5381 43.5178 37.9439C44.1815 37.3496 45.2012 37.4059 45.7955 38.0696C46.3897 38.7333 46.3334 39.753 45.6697 40.3473Z" fill="#996518"/>
<path d="M58.1433 43.7918C57.4796 44.3861 56.4599 44.3298 55.8656 43.6661C55.2714 43.0024 55.3277 41.9827 55.9914 41.3884C56.6551 40.7942 57.6748 40.8505 58.2691 41.5142C58.8633 42.1778 58.807 43.1976 58.1433 43.7918Z" fill="#996518"/>
<path d="M47.8308 51.2918C47.1671 51.8861 46.1474 51.8298 45.5531 51.1661C44.9589 50.5024 45.0152 49.4827 45.6789 48.8884C46.3426 48.2942 47.3623 48.3505 47.9566 49.0142C48.5508 49.6778 48.4945 50.6976 47.8308 51.2918Z" fill="#996518"/>
<path d="M57.2058 51.2918C56.5421 51.8861 55.5224 51.8298 54.9281 51.1661C54.3339 50.5024 54.3902 49.4827 55.0539 48.8884C55.7176 48.2942 56.7373 48.3505 57.3316 49.0142C57.9258 49.6778 57.8695 50.6976 57.2058 51.2918Z" fill="#996518"/>
<path d="M41.2683 56.9168C40.6046 57.5111 39.5849 57.4548 38.9906 56.7911C38.3964 56.1274 38.4527 55.1077 39.1164 54.5134C39.7801 53.9192 40.7998 53.9755 41.3941 54.6392C41.9883 55.3028 41.932 56.3226 41.2683 56.9168Z" fill="#996518"/>
<path d="M30.6697 56.2848C30.006 56.879 28.9863 56.8227 28.392 56.159C27.7978 55.4954 27.8541 54.4756 28.5178 53.8814C29.1815 53.2871 30.2012 53.3434 30.7955 54.0071C31.3897 54.6708 31.3334 55.6905 30.6697 56.2848Z" fill="#996518"/>
<path d="M15.6697 39.4098C15.006 40.004 13.9863 39.9477 13.392 39.284C12.7978 38.6204 12.8541 37.6006 13.5178 37.0064C14.1815 36.4121 15.2012 36.4684 15.7955 37.1321C16.3897 37.7958 16.3334 38.8155 15.6697 39.4098Z" fill="#996518"/>
<path d="M30.6697 31.9098C30.006 32.504 28.9863 32.4477 28.392 31.784C27.7978 31.1204 27.8541 30.1006 28.5178 29.5064C29.1815 28.9121 30.2012 28.9684 30.7955 29.6321C31.3897 30.2958 31.3334 31.3155 30.6697 31.9098Z" fill="#996518"/>
<path d="M63.482 28.1598C62.8183 28.754 61.7986 28.6977 61.2043 28.034C60.6101 27.3704 60.6664 26.3506 61.3301 25.7564C61.9937 25.1621 63.0135 25.2184 63.6077 25.8821C64.202 26.5458 64.1457 27.5655 63.482 28.1598Z" fill="#996518"/>
<path d="M29.471 35.6654C30.673 38.0523 28.745 41.449 25.1646 43.2521C21.5842 45.0552 17.7072 44.5819 16.5052 42.195C15.3031 39.8081 17.2311 36.4114 20.8115 34.6083C24.3919 32.8052 28.2689 33.2784 29.471 35.6654Z" fill="#EEB257"/>
<path fill-rule="evenodd" clip-rule="evenodd" d="M22.9412 37.0614C23.4253 37.9768 23.0756 39.1113 22.1601 39.5954C21.5912 39.8962 21.1448 40.2758 20.795 40.734C20.1667 41.5571 18.9901 41.7151 18.167 41.0867C17.3438 40.4584 17.1859 39.2818 17.8142 38.4587C18.5089 37.5486 19.3819 36.8225 20.4072 36.2803C21.3226 35.7962 22.4571 36.1459 22.9412 37.0614Z" fill="white"/>
</svg>
